# xmcd
#
# Track frame offsets: 
#        150
#        19094
#        32033
#        49964
#        61927
#        75754
#        92874
#        120644
#        132198
#        148252
#        183312
#        197504
#        225685
#        238772
#
# Disc length: 3344 seconds
#
# Revision: 0
# Processed by: cddbd v1.5.2PL0 Copyright (c) Steve Scherf et al.
# Submitted via: ExactAudioCopy v0.95b4
#
DISCID=b80d0e0e
DTITLE=Jimmy Hendrix - Go Go Shoes
DYEAR=1900
DGENRE=Blues
TTITLE0=Good Feeling
TTITLE1=Go Go Shoes
TTITLE2=Bring My Baby Back
TTITLE3=Psycho
TTITLE4=Come On Baby Part1
TTITLE5=Come on baby part2
TTITLE6=Blues blues
TTITLE7=Sweet ting
TTITLE8=Lime lime
TTITLE9=Peoples peoples
TTITLE10=Tomorrow never knows
TTITLE11=Night life
TTITLE12=Nobody can change me
TTITLE13=You got it
EXTD=
EXTT0=
EXTT1=
EXTT2=
EXTT3=
EXTT4=
EXTT5=
EXTT6=
EXTT7=
EXTT8=
EXTT9=
EXTT10=
EXTT11=
EXTT12=
EXTT13=
PLAYORDER=
